<svg width="40" height="34" viewBox="0 0 40 34" fill="none" xmlns="http://www.w3.org/2000/svg">
<path d="M0.799805 5.80005H37.5998V4.52005C37.5998 2.44005 35.8398 0.680054 33.7598 0.680054H4.6398C2.5598 0.680054 0.799805 2.44005 0.799805 4.52005V5.80005Z" fill="#8C17FF"/>
<path d="M4.6398 28.0401H20.3198C19.9998 27.0801 19.9998 26.2801 19.9998 25.1601C19.9998 18.9201 24.9598 13.9601 31.1998 13.9601C33.5998 13.9601 35.8398 14.7601 37.5998 16.0401V10.1201H0.799805V24.2001C0.799805 26.4401 2.5598 28.0401 4.6398 28.0401ZM4.4798 17.4801C4.4798 16.8401 4.9598 16.3601 5.5998 16.3601H10.3998C11.0398 16.3601 11.5198 16.8401 11.5198 17.4801V22.2801C11.5198 22.9201 11.0398 23.4001 10.3998 23.4001H5.5998C4.9598 23.4001 4.4798 22.9201 4.4798 22.2801V17.4801Z" fill="#8C17FF"/>
<path d="M31.1997 17.3201C26.7197 17.3201 23.1997 20.8401 23.1997 25.3201C23.1997 29.8001 26.7197 33.3201 31.1997 33.3201C35.6797 33.3201 39.1997 29.6401 39.1997 25.3201C39.1997 20.8401 35.6797 17.3201 31.1997 17.3201ZM34.2397 26.4401C34.7197 26.9201 34.7197 27.8801 34.2397 28.3601C33.7597 28.8401 32.7997 28.8401 32.3197 28.3601L31.1997 27.2401L29.9197 28.3601C29.4397 28.8401 28.4797 28.8401 27.9997 28.3601C27.5197 27.8801 27.5197 26.9201 27.9997 26.4401L29.1197 25.3201L27.9997 24.2001C27.5197 23.7201 27.5197 22.7601 27.9997 22.2801C28.4797 21.8001 29.4397 21.8001 29.9197 22.2801L31.1997 23.5601L32.3197 22.2801C32.7997 21.8001 33.7597 21.8001 34.2397 22.2801C34.7197 22.7601 34.7197 23.7201 34.2397 24.2001L33.1197 25.3201L34.2397 26.4401Z" fill="#8C17FF"/>
</svg>
