<svg width="332" height="144" viewBox="0 0 332 144" fill="none" xmlns="http://www.w3.org/2000/svg">
<path d="M118.748 125.018L171.335 97.2701L172.407 103.432L120.891 131.142L118.748 125.018Z" fill="#7589AF"/>
<path d="M329.863 84.4103C327.337 68.4887 324.658 52.1461 319.567 36.8368C314.822 22.3696 306.019 8.0171 291.322 2.08475C281.868 -1.74256 249.298 -1.74258 236.4 23.977C229.855 36.9899 228.362 50.7682 227.291 64.9293C226.678 73.158 225.683 81.2337 223.119 89.118C220.823 96.1219 217.761 103.356 218.258 110.895C219.024 121.995 227.099 130.874 236.668 135.811C238.888 134.051 241.107 132.252 243.327 130.568C241.107 132.252 238.888 134.051 236.668 135.811C238.007 136.5 239.423 137.151 240.801 137.687C248.188 140.557 256.149 141.514 264.033 141.897C271.726 142.279 279.534 142.509 287.227 142.165C301.388 141.59 315.893 137.113 325.117 125.707C334.838 113.842 332.083 98.3418 329.863 84.4103Z" fill="#9F72FF"/>
<path d="M264.836 92.5626C260.894 96.9257 261.123 100.102 263.917 101.097C266.711 102.093 268.969 96.3133 268.969 96.3133L264.836 92.5626Z" fill="white"/>
<path d="M272.568 95.5096C269.812 100.715 270.807 103.738 273.754 104.006C276.701 104.313 277.505 98.1505 277.505 98.1505L272.568 95.5096Z" fill="white"/>
<path d="M256.914 86.6303C257.144 87.434 257.488 88.1612 257.947 88.9267C258.751 90.228 259.861 91.4527 261.2 92.6391C263.229 94.3997 265.793 95.9689 268.702 97.1171C271.611 98.2653 274.787 98.9925 278.117 98.9925C280.146 98.9925 282.174 98.7246 284.203 98.074C286.193 97.4616 288.183 96.4665 290.02 95.0504C290.747 94.5146 290.862 93.4812 290.326 92.754C289.791 92.0268 288.757 91.912 288.03 92.4478C286.499 93.596 284.892 94.3997 283.246 94.9355C281.6 95.4714 279.878 95.701 278.156 95.701C276.012 95.701 273.869 95.3183 271.84 94.7059C268.779 93.7491 265.985 92.2181 263.918 90.5341C262.884 89.6921 262.004 88.8118 261.354 87.9698C260.703 87.1278 260.32 86.3624 260.129 85.7117C259.899 84.8314 258.981 84.3339 258.139 84.5635C257.297 84.7932 256.684 85.75 256.914 86.6303Z" fill="black"/>
<path d="M271.572 62.8626C280.408 62.8626 287.571 55.7 287.571 46.8644C287.571 38.0289 280.408 30.8662 271.572 30.8662C262.737 30.8662 255.574 38.0289 255.574 46.8644C255.574 55.7 262.737 62.8626 271.572 62.8626Z" fill="white"/>
<path d="M317.844 39.1332C320.83 47.2854 317.538 55.7055 310.419 57.8871C303.339 60.1069 295.148 55.2462 292.125 47.094C289.139 38.9418 292.431 30.5217 299.55 28.3402C306.669 26.1586 314.859 30.981 317.844 39.1332Z" fill="white"/>
<path d="M286.46 47.4003C286.46 52.7203 282.135 57.0451 276.815 57.0451C271.495 57.0451 267.17 52.7203 267.17 47.4003C267.17 42.0803 271.495 37.7554 276.815 37.7554C282.135 37.7554 286.46 42.0421 286.46 47.4003Z" fill="black"/>
<path d="M317.843 42.3099C318.877 46.9027 315.891 51.3041 311.146 52.1078C306.4 52.9116 301.692 49.8497 300.62 45.2187C299.587 40.6259 302.572 36.2245 307.318 35.4208C312.102 34.617 316.81 37.7171 317.843 42.3099Z" fill="black"/>
<path d="M231.922 78.1335L193.304 100.676C193.304 100.676 208.192 110.627 200.959 115.565C193.687 120.54 189.86 119.392 189.86 119.392C189.86 119.392 186.798 128.578 177.229 126.664C167.661 124.75 169.575 118.627 173.402 116.33C160.772 117.096 161.92 104.848 168.044 104.465C161.155 96.0454 175.699 90.3427 184.08 96.0454C189.821 92.2181 232.228 69.6752 232.228 69.6752L231.922 78.1335Z" fill="#9F72FF"/>
<path d="M60.6868 143.313C60.6868 143.313 103.094 143.313 113.083 143.313C123.072 143.313 130.038 123.64 126.096 112.733C122.154 101.825 128.201 96.3899 113.389 92.754C98.539 89.118 98.539 83.9511 88.5497 92.4478C78.5604 100.944 84.6076 101.518 70.6761 105.461C56.7447 109.403 50.6975 111.508 45.5307 116.675C36.8427 125.363 39.4835 143.313 60.6868 143.313Z" fill="#7589AF"/>
<path d="M106.768 102.782C105.467 103.662 103.324 104.504 102.443 103.203C97.9655 98.3418 95.4013 90.4959 89.6603 87.0895C86.5601 90.0366 85.4119 92.9453 87.67 93.6342C90.6936 94.5528 95.2482 103.317 96.7408 106.647C98.2717 109.977 100.071 111.814 102.482 111.814C104.893 111.814 107.342 104.236 119.437 105.767C123.915 106.341 125.79 105.078 126.288 101.098C119.934 101.404 113.16 98.9542 106.768 102.782Z" fill="#61738E"/>
<path d="M117.638 85.1375C108.3 75.7989 95.5164 81.5016 89.6606 87.0895C95.3633 90.4958 97.9276 98.38 102.444 103.202C103.324 104.504 105.467 103.623 106.769 102.781C113.16 98.9541 119.935 101.404 126.326 101.059C126.365 100.715 126.403 100.37 126.441 99.9875C126.747 95.1269 124.795 92.2946 117.638 85.1375Z" fill="#8899BA"/>
<path d="M54.1423 107.795C45.3778 107.795 41.627 114.225 41.627 114.225C41.627 114.225 39.8281 120.578 40.0961 121.497C40.2109 121.842 40.6701 123.296 41.1677 124.865C41.7801 121.803 43.2727 118.933 45.5309 116.636C49.052 113.115 52.9558 111.01 59.5388 108.79C58.3906 108.293 57.1659 107.948 55.8646 107.834C55.2522 107.795 54.6781 107.795 54.1423 107.795Z" fill="#9C9B9B"/>
<path d="M51.5395 138.873C51.9223 139.256 52.3815 139.6 52.8025 139.983C52.8025 139.983 52.305 139.562 51.5395 138.873ZM59.5386 108.829C52.9939 111.048 49.0518 113.153 45.5306 116.675C43.2725 118.933 41.7799 121.841 41.1675 124.903C41.9329 127.276 42.8132 130.032 42.8132 130.032C42.8132 130.032 44.038 130.644 44.6121 132.137C45.0713 133.247 49.3197 137.036 51.5012 138.911C43.9614 131.793 47.406 121.497 57.7015 121.497C57.9694 121.497 58.2756 121.497 58.5435 121.535C58.8497 121.535 59.1942 121.574 59.4621 121.574C69.7193 121.535 66.8105 111.967 59.5386 108.829Z" fill="#48536A"/>
<path d="M73.317 101.059C73.4701 104.925 71.8244 108.676 68.0736 110.551C61.6437 113.766 51.1186 111.393 47.1382 117.019C47.3295 116.866 47.4826 116.751 47.674 116.636C54.3335 112.694 63.7487 116.943 70.4083 110.895C73.6615 107.91 74.6566 104.006 73.317 101.059Z" fill="#61738E"/>
<path d="M68.0362 110.589C71.8253 108.714 73.4327 104.963 73.2796 101.097C71.8635 98.0356 67.9214 96.0454 61.2618 97.2702C48.249 99.6814 32.1742 116.062 37.6473 128.463C43.0821 140.902 46.4501 144.231 60.9557 143.619C45.9526 138.605 41.245 121.612 47.0625 117.019C51.1195 111.393 61.6446 113.766 68.0362 110.589Z" fill="#7589AF"/>
<path d="M106.959 130.032C97.1994 120.693 84.7989 126.626 73.6614 124.865C73.0873 125.478 72.7046 126.243 72.5132 127.276C71.4798 133.591 70.7143 136.653 76.7615 136.96C82.8087 137.266 98.5772 140.289 102.826 136.96C104.777 135.429 106.883 133.017 107.916 130.53C107.61 130.53 107.304 130.377 106.959 130.032Z" fill="#8899BA"/>
<path d="M105.237 122.722C98.577 119.086 84.9517 120.617 83.1146 121.803C81.6219 122.798 76.1489 122.186 73.6611 124.865C84.7986 126.626 97.2374 120.693 106.959 130.032C107.303 130.376 107.609 130.529 107.877 130.529C109.064 127.659 108.796 124.674 105.237 122.722Z" fill="#61738E"/>
<path d="M116.221 136.577L188.978 119.622L195.829 118.206L114.422 142.7L116.221 136.577Z" fill="#7589AF"/>
<path d="M11.4676 114.455C1.59315 108.331 -4.98984 124.329 4.88464 128.578C-0.282236 135.62 12.8837 141.744 16.1752 134.242C26.0497 141.782 34.0488 126.702 27.4658 122.951C34.9674 118.206 17.0938 103.164 11.4676 114.455Z" fill="#D9D9D9"/>
<path d="M25.8581 76.6025C20.0788 73.0431 16.2132 82.3818 21.9925 84.8696C18.9689 89.0031 26.6618 92.5625 28.6137 88.161C34.393 92.5625 39.0623 83.7596 35.235 81.5398C39.6364 78.8224 29.1496 70.0195 25.8581 76.6025Z" fill="#D9D9D9"/>
<path d="M67.4233 99.4136C70.4851 99.5284 76.2644 95.0121 74.0445 91.1848C74.4273 90.5725 78.3311 87.2427 78.3311 87.2427L80.3979 92.6392C80.3979 92.6392 76.4175 102.973 68.6098 103.432C64.5911 103.738 67.4233 99.4136 67.4233 99.4136Z" fill="#BE9B73"/>
<path d="M77.7185 93.2897C77.7185 93.749 77.374 94.1317 76.9913 94.1317C76.5703 94.1317 76.2642 93.749 76.2642 93.2897C76.2642 92.8305 76.6086 92.4477 76.9913 92.4477C77.374 92.4477 77.7185 92.8305 77.7185 93.2897Z" fill="#FDF9EF"/>
<path d="M75.8815 97.2701C75.537 97.6145 75.0394 97.6528 74.7715 97.3467C74.5036 97.0405 74.5419 96.5429 74.8863 96.2367C75.2308 95.9305 75.7283 95.854 75.9963 96.1602C76.2642 96.4281 76.2259 96.9256 75.8815 97.2701Z" fill="#FDF9EF"/>
<path d="M112.891 84.4487C115.532 86.0179 122.766 84.8315 122.651 80.4683C123.263 80.1239 128.315 79.0905 128.315 79.0905L127.55 84.8314C127.55 84.8314 119.091 91.9503 112.011 88.5822C108.337 86.8217 112.891 84.4487 112.891 84.4487Z" fill="#BE9B73"/>
<path d="M124.871 84.0659C124.641 84.4869 124.182 84.64 123.799 84.4486C123.417 84.2572 123.34 83.7597 123.57 83.3387C123.799 82.9177 124.258 82.7646 124.641 82.956C125.024 83.1473 125.101 83.6448 124.871 84.0659Z" fill="#FDF9EF"/>
<path d="M121.349 86.6303C120.89 86.7451 120.431 86.5537 120.316 86.1327C120.201 85.75 120.507 85.329 120.928 85.1759C121.387 85.0611 121.847 85.2524 121.962 85.6735C122.115 86.0945 121.808 86.5155 121.349 86.6303Z" fill="#FDF9EF"/>
</svg>
