<svg width="16" height="13" viewBox="0 0 16 13" fill="none" xmlns="http://www.w3.org/2000/svg">
<path d="M15.1353 5.41342L11.4124 0.932104C11.2007 0.69463 10.9206 0.565353 10.6313 0.571499C10.3419 0.577644 10.0659 0.718719 9.86126 0.965036C9.65663 1.21135 9.53943 1.54364 9.53433 1.89193C9.52922 2.24022 9.63662 2.57732 9.83391 2.83218L11.6432 5.01906H1.68816C1.39195 5.01906 1.10786 5.16069 0.898406 5.41282C0.688952 5.66494 0.571289 6.0069 0.571289 6.36345C0.571289 6.72001 0.688952 7.06197 0.898406 7.31409C1.10786 7.56621 1.39195 7.70785 1.68816 7.70785H11.6432L9.83391 9.89473C9.70013 10.0023 9.58724 10.1434 9.50297 10.3083C9.4187 10.4733 9.36494 10.6583 9.34555 10.8505C9.32615 11.0428 9.34152 11.2378 9.39054 11.4222C9.43956 11.6067 9.52109 11.7762 9.62958 11.9192C9.73807 12.0622 9.87097 12.1753 10.0191 12.2508C10.1673 12.3262 10.3272 12.3622 10.488 12.3564C10.6489 12.3505 10.8068 12.3029 10.9509 12.2168C11.095 12.1307 11.222 12.0082 11.3231 11.8575L11.3826 11.7948L15.1055 7.31349C15.3124 7.06179 15.4284 6.72202 15.4284 6.36794C15.4284 6.01386 15.3124 5.67409 15.1055 5.42239L15.1353 5.41342Z" fill="#BA8DFE"/>
</svg>
