<svg width="201" height="182" viewBox="0 0 201 182" fill="none" xmlns="http://www.w3.org/2000/svg">
<g clip-path="url(#clip0_532:33576)">
<path d="M132.347 69.2552L164.24 89.133L172.865 109.575L195.56 98.1383L200.25 76.0027L156.745 62.0388L132.347 69.2552Z" fill="#00C76B"/>
<path d="M167.471 66.0681C167.384 67.4836 164.179 68.4215 160.306 68.1784C156.432 67.9352 153.357 66.5891 153.462 65.1823C153.566 63.7755 156.753 62.8377 160.627 63.0808C164.501 63.324 167.575 64.6613 167.471 66.0681Z" fill="#008845"/>
<path d="M153.453 65.1825L153.913 60.7883L156.562 61.648L156.649 66.2332L153.453 65.1825Z" fill="#008845"/>
<path d="M167.471 66.0682L167.888 61.9346L164.475 62.4643L165.89 65.9379L167.141 65.9553L167.471 66.0682Z" fill="#008845"/>
<path d="M167.897 61.9347C167.81 63.3415 164.596 64.2794 160.722 64.0362C156.849 63.7931 153.774 62.4557 153.878 61.0489C153.983 59.6421 157.179 58.6956 161.052 58.9387C164.926 59.1819 168.001 60.5279 167.897 61.9347Z" fill="#00C76B"/>
<path d="M195.23 75.1604C195.143 76.5759 191.93 77.5138 188.056 77.2707C184.182 77.0275 181.107 75.6814 181.212 74.2746C181.316 72.8678 184.512 71.93 188.386 72.1731C192.259 72.4163 195.334 73.7536 195.23 75.1604Z" fill="#008845"/>
<path d="M181.211 74.2833L181.672 69.8892L184.312 70.7489L184.399 75.334L181.211 74.2833Z" fill="#008845"/>
<path d="M195.23 75.169L195.647 71.0354L192.233 71.5651L193.64 75.0388L194.9 75.0561L195.23 75.169Z" fill="#008845"/>
<path d="M195.656 71.0355C195.56 72.4423 192.355 73.3802 188.481 73.1371C184.608 72.8939 181.533 71.5565 181.637 70.1497C181.741 68.7429 184.929 67.7964 188.803 68.0396C192.676 68.2827 195.751 69.6287 195.656 71.0355Z" fill="#00C76B"/>
<path d="M180.604 70.6881C180.517 72.0949 177.303 73.0415 173.438 72.7897C169.573 72.5378 166.49 71.2092 166.585 69.8024C166.681 68.3956 169.886 67.449 173.759 67.6921C177.633 67.9353 180.708 69.2813 180.604 70.6881Z" fill="#008845"/>
<path d="M166.585 69.8022L167.046 65.4167L169.695 66.2765L169.781 70.8616L166.585 69.8022Z" fill="#008845"/>
<path d="M180.603 70.6881L181.02 66.5632L177.607 67.093L179.023 70.5666L180.273 70.5839L180.603 70.6881Z" fill="#008845"/>
<path d="M181.029 66.5545C180.942 67.9613 177.729 68.9079 173.855 68.6647C169.981 68.4215 166.906 67.0756 167.011 65.6687C167.115 64.2619 170.311 63.324 174.176 63.5672C178.041 63.8103 181.125 65.1477 181.029 66.5545Z" fill="#00C76B"/>
<path d="M14.4421 0L13.5388 69.2639L48.602 64.7482L49.5053 0.225785L14.4421 0Z" fill="#FFB21B"/>
<path d="M14.4508 0L0.936185 3.161L0.25 67.0059C0.25 67.0059 12.8613 70.8444 13.5388 69.2639C14.2163 67.6834 14.4508 0 14.4508 0Z" fill="#FF9100"/>
<path d="M29.6677 12.5918C28.9555 16.9338 25.6724 20.0514 22.3459 19.539C19.0194 19.0267 16.8915 15.0146 17.6037 10.6552C18.3159 6.2958 21.5902 3.1956 24.9168 3.70796C28.2433 4.22032 30.3799 8.22374 29.6677 12.5831" fill="#FF9100"/>
<path d="M23.2578 3.69946L30.1106 3.95998L25.4813 6.42625L23.2578 3.69946Z" fill="#FF9100"/>
<path d="M22.1201 19.4869L27.4443 19.7387L26.1762 18.0974L22.1201 19.4869Z" fill="#FF9100"/>
<path d="M34.6009 12.8871C33.8887 17.2291 30.6144 20.3467 27.2792 19.8343C23.9439 19.322 21.8247 15.3186 22.5369 10.9506C23.2491 6.5825 26.5322 3.49966 29.8587 4.00334C33.1852 4.50701 35.3131 8.5277 34.6009 12.8871Z" fill="#FFB21B"/>
<path d="M47.9593 12.5918C47.2471 16.9338 43.9725 20.0514 40.6373 19.539C37.3021 19.0267 35.1829 15.0146 35.8951 10.6552C36.6073 6.2958 39.8819 3.1956 43.2171 3.70796C46.5523 4.22032 48.6715 8.22374 47.9593 12.5831" fill="#FF9100"/>
<path d="M41.5667 3.69946L48.4108 3.95998L43.7814 6.42625L41.5667 3.69946Z" fill="#FF9100"/>
<path d="M40.429 19.4869L45.7531 19.7387L44.4851 18.0974L40.429 19.4869Z" fill="#FF9100"/>
<path d="M52.9098 12.8871C52.1976 17.2291 48.9232 20.3467 45.588 19.8343C42.2528 19.322 40.1336 15.3186 40.8458 10.9506C41.558 6.5825 44.8323 3.49966 48.1675 4.00334C51.5028 4.50701 53.622 8.5277 52.9098 12.8871Z" fill="#FFB21B"/>
<path d="M29.6674 32.487C28.9552 36.829 25.6722 39.9466 22.3457 39.4342C19.0191 38.9218 16.8912 34.9098 17.6034 30.5504C18.3156 26.1911 21.59 23.0909 24.9165 23.6032C28.2431 24.1156 30.3796 28.1276 29.6674 32.487Z" fill="#FF9100"/>
<path d="M23.2578 23.5945L30.1106 23.855L25.4813 26.3213L23.2578 23.5945Z" fill="#FF9100"/>
<path d="M22.1201 39.382L27.4443 39.6339L26.1762 37.9839L22.1201 39.382Z" fill="#FF9100"/>
<path d="M34.6009 32.7821C33.8887 37.1241 30.6144 40.2417 27.2792 39.7294C23.9439 39.217 21.8247 35.2136 22.5369 30.8455C23.2491 26.4774 26.5322 23.3859 29.8587 23.8983C33.1852 24.4106 35.3131 28.4227 34.6009 32.7821Z" fill="#FFB21B"/>
<path d="M47.9593 32.2873C47.2471 36.6293 43.9725 39.7468 40.6373 39.2345C37.3021 38.7221 35.1829 34.7101 35.8951 30.3507C36.6073 25.9914 39.8819 22.8912 43.2171 23.4035C46.5523 23.9159 48.6715 27.9279 47.9593 32.2873Z" fill="#FF9100"/>
<path d="M41.5667 23.4036L48.4108 23.6554L43.7814 26.1217L41.5667 23.4036Z" fill="#FF9100"/>
<path d="M40.429 39.1824L45.7531 39.4342L44.4851 37.793L40.429 39.1824Z" fill="#FF9100"/>
<path d="M52.9098 32.5824C52.1976 36.9244 48.9232 40.042 45.588 39.5296C42.2528 39.0173 40.1336 35.0139 40.8458 30.6459C41.558 26.2778 44.8323 23.195 48.1675 23.6987C51.5028 24.2023 53.622 28.223 52.9098 32.5824Z" fill="#FFB21B"/>
<path d="M47.3599 52.7814C46.6564 57.1234 43.3732 60.241 40.0379 59.7286C36.7027 59.2162 34.5835 55.2129 35.2957 50.8449C36.0079 46.4768 39.291 43.394 42.6175 43.8976C45.944 44.4013 48.0721 48.422 47.3599 52.7814Z" fill="#FF9100"/>
<path d="M40.9675 43.8892L47.8117 44.141L43.191 46.6159L40.9675 43.8892Z" fill="#FF9100"/>
<path d="M39.8296 59.6767L45.1538 59.9285L43.8857 58.2786L39.8296 59.6767Z" fill="#FF9100"/>
<path d="M52.3106 53.0421C51.5984 57.3842 48.3238 60.493 44.9886 59.9894C41.6534 59.4857 39.5342 55.465 40.2464 51.1056C40.9586 46.7462 44.2332 43.646 47.5684 44.1584C50.9036 44.6708 53.0228 48.6741 52.3106 53.0421Z" fill="#FFB21B"/>
<path d="M28.4603 52.9814C27.7481 57.3235 24.4735 60.441 21.1383 59.9287C17.8031 59.4163 15.6839 55.4129 16.3961 51.0448C17.1083 46.6767 20.3826 43.5939 23.7178 44.0976C27.0531 44.6013 29.1725 48.622 28.4603 52.9814Z" fill="#FF9100"/>
<path d="M22.0679 44.0889L28.912 44.3407L24.2827 46.8157L22.0679 44.0889Z" fill="#FF9100"/>
<path d="M20.9214 59.8764L26.2543 60.1282L24.9862 58.4783L20.9214 59.8764Z" fill="#FF9100"/>
<path d="M33.4111 53.268C32.6989 57.61 29.4156 60.7276 26.0891 60.2152C22.7625 59.7028 20.6346 55.6908 21.3468 51.3315C22.0591 46.9721 25.3336 43.8719 28.6688 44.3842C32.0041 44.8966 34.1233 48.8999 33.4111 53.2593" fill="#FFB21B"/>
<path d="M134.64 134.047C132.547 120.873 130.298 107.343 126.128 94.6387C122.185 82.6634 114.924 70.7836 102.738 65.8598C94.9215 62.6901 67.9359 62.6901 57.2441 83.9746C51.833 94.7515 50.5824 106.162 49.7052 117.886C49.2014 124.694 48.385 131.407 46.231 137.911C44.3289 143.729 41.7926 149.704 42.2182 155.948C42.8435 165.153 49.5314 172.448 57.4786 176.59C59.3286 175.114 61.1698 173.637 63.0024 172.248C61.1698 173.655 59.3286 175.131 57.4786 176.59C58.5911 177.165 59.7334 177.681 60.9006 178.136C67.0326 180.498 73.6334 181.297 80.1562 181.609C86.5313 181.931 92.9847 182.104 99.3685 181.844C111.094 181.357 123.115 177.658 130.766 168.227C138.731 158.406 136.456 145.544 134.623 134.021" fill="#B98CFF"/>
<path d="M90.3008 101.178C90.3008 103.83 89.5144 106.422 88.0408 108.627C86.5673 110.832 84.4727 112.55 82.0223 113.565C79.5719 114.58 76.8756 114.846 74.2743 114.328C71.6729 113.811 69.2835 112.534 67.408 110.659C65.5325 108.784 64.2551 106.394 63.7377 103.793C63.2202 101.193 63.4858 98.4966 64.5008 96.0466C65.5158 93.5966 67.2347 91.5026 69.44 90.0293C71.6453 88.556 74.2382 87.7695 76.8905 87.7695C78.6516 87.7695 80.3953 88.1163 82.0223 88.7902C83.6493 89.464 85.1278 90.4517 86.3731 91.6967C87.6183 92.9418 88.6061 94.4199 89.28 96.0466C89.954 97.6734 90.3008 99.417 90.3008 101.178Z" fill="#FBFBFB"/>
<path d="M118.563 99.6841C118.563 102.03 117.867 104.324 116.564 106.275C115.26 108.225 113.407 109.746 111.239 110.644C109.071 111.541 106.686 111.776 104.384 111.319C102.083 110.861 99.9688 109.731 98.3095 108.072C96.6503 106.413 95.5202 104.299 95.0624 101.998C94.6047 99.6972 94.8396 97.3122 95.7376 95.1446C96.6356 92.977 98.1562 91.1244 100.107 89.8209C102.058 88.5175 104.352 87.8218 106.699 87.8218C109.845 87.8218 112.863 89.0715 115.088 91.2961C117.313 93.5208 118.563 96.538 118.563 99.6841Z" fill="#FBFBFB"/>
<path d="M85.4544 96.853C85.4544 98.3988 84.9959 99.9098 84.137 101.195C83.2781 102.48 82.0572 103.482 80.6289 104.074C79.2005 104.665 77.6288 104.82 76.1125 104.519C74.5962 104.217 73.2033 103.473 72.1101 102.38C71.0169 101.286 70.2724 99.8939 69.9707 98.3778C69.6691 96.8617 69.824 95.2902 70.4156 93.8621C71.0073 92.434 72.0093 91.2134 73.2948 90.3546C74.5803 89.4958 76.0915 89.0374 77.6375 89.0374C79.7107 89.0374 81.699 89.8608 83.165 91.3266C84.6309 92.7923 85.4544 94.7801 85.4544 96.853Z" fill="black"/>
<path d="M111.016 96.2365C111.016 97.626 110.604 98.9844 109.832 100.14C109.059 101.295 107.962 102.195 106.678 102.727C105.394 103.259 103.981 103.398 102.618 103.127C101.255 102.856 100.003 102.187 99.0208 101.204C98.0381 100.222 97.3688 98.9699 97.0977 97.6071C96.8266 96.2443 96.9656 94.8317 97.4974 93.548C98.0292 92.2643 98.9299 91.1671 100.085 90.3952C101.241 89.6232 102.6 89.2112 103.989 89.2112C105.853 89.2112 107.64 89.9514 108.958 91.2689C110.275 92.5864 111.016 94.3733 111.016 96.2365Z" fill="black"/>
<path d="M85.463 142.896C83.0397 147.116 83.7781 149.652 86.2013 149.965C88.6245 150.277 89.4757 145.223 89.4757 145.223L85.463 142.896Z" fill="white"/>
<path d="M92.203 143.938C90.8741 148.627 92.203 150.885 94.635 150.625C97.0669 150.364 96.6585 145.223 96.6585 145.223L92.203 143.938Z" fill="white"/>
<path d="M78.0283 139.474C78.6043 140.512 79.3914 141.417 80.3387 142.132C82.0294 143.428 83.9343 144.419 85.9669 145.058C88.2877 145.824 90.7146 146.22 93.1585 146.231C95.5343 146.246 97.8917 145.813 100.107 144.954C102.481 144.011 104.589 142.503 106.247 140.56C106.433 140.283 106.51 139.947 106.464 139.617C106.417 139.287 106.251 138.985 105.996 138.77C105.741 138.555 105.416 138.441 105.082 138.451C104.749 138.461 104.431 138.593 104.189 138.823C102.815 140.433 101.068 141.683 99.0992 142.462C97.202 143.195 95.1836 143.563 93.1498 143.547C90.3316 143.541 87.5453 142.95 84.9679 141.81C83.9153 141.356 82.9234 140.773 82.015 140.073C81.3727 139.591 80.8324 138.986 80.4254 138.293C80.3484 138.128 80.2387 137.979 80.1029 137.857C79.9671 137.735 79.8082 137.642 79.6354 137.583C79.4625 137.524 79.2795 137.5 79.0974 137.513C78.9152 137.527 78.7376 137.577 78.5753 137.661C78.413 137.744 78.2694 137.86 78.1529 138.001C78.0365 138.142 77.9498 138.304 77.8978 138.479C77.8459 138.655 77.8301 138.838 77.851 139.02C77.8719 139.201 77.9291 139.376 78.0196 139.535L78.0283 139.474Z" fill="black"/>
<path d="M63.8797 110.921C63.0112 107.526 45.5621 72.4769 46.5088 68.1783C50.3565 64.5571 54.43 52.3473 47.1863 47.5971C39.9426 42.8469 42.2096 58.2264 44.0249 61.3874C42.1653 62.2952 40.5976 63.7062 39.4998 65.4602L30.7361 66.7281L40.1773 70.6619L60.0843 117.703L63.8797 110.921Z" fill="#B98CFF"/>
<path d="M132.347 69.2551L132.165 93.2578C132.165 93.2578 172.682 110.513 172.873 109.575C173.065 108.637 174.559 85.3813 174.559 85.3813L132.347 69.2551Z" fill="#008845"/>
<path d="M123.531 116.887C141.354 127.395 146.982 122.705 146.608 116.514C146.235 110.322 144.915 103.01 144.915 103.01C144.915 103.01 130.097 89.8798 141.727 85.1904C153.357 80.501 143.421 94.5691 143.421 94.5691C143.421 94.5691 152.801 92.8844 151.299 99.4495C153.175 100.57 164.049 104.66 164.049 104.66C164.049 104.66 154.295 104.851 152.801 108.412C152.801 117.234 153.548 119.701 152.61 122.106C151.672 124.512 150.361 125.858 147.355 126.231C144.35 126.605 126.945 129.462 126.945 129.462L123.531 116.887Z" fill="#B98CFF"/>
<path d="M153.87 68.9948C153.87 70.5232 150.465 71.765 146.261 71.765C142.058 71.765 138.653 70.5232 138.653 68.9948C138.653 67.4664 142.058 66.2246 146.261 66.2246C150.465 66.2246 153.87 67.4664 153.87 68.9948Z" fill="#008845"/>
<path d="M138.609 68.9947L138.809 64.2185L141.727 64.9653L142.136 69.9239L138.609 68.9947Z" fill="#008845"/>
<path d="M153.826 68.9948L154 64.5051L150.344 65.3041L152.107 68.9687L153.47 68.8992L153.826 68.9948Z" fill="#008845"/>
<path d="M154.008 64.4963C154.008 66.0247 150.604 67.2666 146.4 67.2666C142.196 67.2666 138.792 66.0247 138.792 64.4963C138.792 62.9679 142.196 61.7349 146.4 61.7349C150.604 61.7349 154.008 62.9679 154.008 64.4963Z" fill="#00C76B"/>
<path d="M166.898 73.7795C166.898 75.3079 163.493 76.5411 159.289 76.5411C155.086 76.5411 151.681 75.3079 151.681 73.7795C151.681 72.2512 155.086 71.0093 159.289 71.0093C163.493 71.0093 166.898 72.2512 166.898 73.7795Z" fill="#008845"/>
<path d="M151.707 73.7796L151.915 69.0034L154.834 69.7502L155.233 74.7001L151.707 73.7796Z" fill="#008845"/>
<path d="M166.933 73.7796L167.098 69.2812L163.45 70.0889L165.213 73.7535L166.568 73.6841L166.933 73.7796Z" fill="#008845"/>
<path d="M167.106 69.2811C167.106 70.8095 163.702 72.0514 159.498 72.0514C155.294 72.0514 151.889 70.8095 151.889 69.2811C151.889 67.7528 155.294 66.511 159.498 66.511C163.702 66.511 167.106 67.7528 167.106 69.2811Z" fill="#00C76B"/>
<path d="M181.429 78.6339C181.429 80.1623 178.024 81.3955 173.82 81.3955C169.616 81.3955 166.212 80.1623 166.212 78.6339C166.212 77.1055 169.616 75.8638 173.82 75.8638C178.024 75.8638 181.429 77.1055 181.429 78.6339Z" fill="#008845"/>
<path d="M166.203 78.6339L166.411 73.8577L169.33 74.6045L169.729 79.5544L166.203 78.6339Z" fill="#008845"/>
<path d="M181.429 78.6339L181.602 74.1443L177.946 74.9432L179.709 78.6079L181.064 78.5384L181.429 78.6339Z" fill="#008845"/>
<path d="M181.602 74.1356C181.602 75.664 178.197 76.9058 173.994 76.9058C169.79 76.9058 166.385 75.664 166.385 74.1356C166.385 72.6072 169.79 71.374 173.994 71.374C178.197 71.374 181.602 72.6072 181.602 74.1356Z" fill="#00C76B"/>
</g>
<defs>
<clipPath id="clip0_532:33576">
<rect width="200" height="182" fill="white" transform="translate(0.25)"/>
</clipPath>
</defs>
</svg>
