<svg width="602" height="861" viewBox="0 0 602 861" fill="none" xmlns="http://www.w3.org/2000/svg">
<path d="M576.793 441.541C511.403 328.388 376.601 332.492 337.716 250.776C330.047 233.926 327.843 215.083 322.284 197.421C308.27 153.014 273.983 118.251 236.564 91.5271C124.93 11.8265 -19.5083 -9.00574 -156.332 4.00264C-199.418 8.10664 -243.383 15.7087 -281 37.8881C-331.651 67.7036 -366.018 122.436 -377.545 180.548C-389.072 238.661 -378.845 299.604 -355.345 353.468C-335.742 398.232 -306.716 440.509 -302.492 489.219L-297.413 620.139C-298.782 659.235 -185.273 765.278 -124.074 792.406C-124.074 792.406 -40.4092 833.01 84.3113 857.51C113.56 863.492 144.082 858.85 170.582 844.389C208.804 823.118 221.419 769.641 260.214 749.295C292.191 732.465 330.189 743.8 365.917 747.136C440.623 754.009 519.165 719.96 563.446 657.715C607.727 595.471 614.601 507.008 576.793 441.541Z" fill="#BA8DFE"/>
</svg>
