<svg width="40" height="40" viewBox="0 0 40 40" fill="none" xmlns="http://www.w3.org/2000/svg">
<path d="M0.799805 8.80005H37.5998V7.52005C37.5998 5.44005 35.8398 3.68005 33.7598 3.68005H4.6398C2.5598 3.68005 0.799805 5.44005 0.799805 7.52005V8.80005Z" fill="#FFB41B"/>
<path d="M4.6398 31.0401H20.3198C19.9998 30.0801 19.9998 29.2801 19.9998 28.1601C19.9998 21.9201 24.9598 16.9601 31.1998 16.9601C33.5998 16.9601 35.8398 17.7601 37.5998 19.0401V13.1201H0.799805V27.2001C0.799805 29.4401 2.5598 31.0401 4.6398 31.0401ZM4.4798 20.4801C4.4798 19.8401 4.9598 19.3601 5.5998 19.3601H10.3998C11.0398 19.3601 11.5198 19.8401 11.5198 20.4801V25.2801C11.5198 25.9201 11.0398 26.4001 10.3998 26.4001H5.5998C4.9598 26.4001 4.4798 25.9201 4.4798 25.2801V20.4801Z" fill="#FFB41B"/>
<path d="M31.1997 20.3201C26.7197 20.3201 23.1997 23.8401 23.1997 28.3201C23.1997 32.8001 26.7197 36.3201 31.1997 36.3201C35.6797 36.3201 39.1997 32.6401 39.1997 28.3201C39.1997 23.8401 35.6797 20.3201 31.1997 20.3201ZM34.2397 29.4401C34.7197 29.9201 34.7197 30.8801 34.2397 31.3601C33.7597 31.8401 32.7997 31.8401 32.3197 31.3601L31.1997 30.2401L29.9197 31.3601C29.4397 31.8401 28.4797 31.8401 27.9997 31.3601C27.5197 30.8801 27.5197 29.9201 27.9997 29.4401L29.1197 28.3201L27.9997 27.2001C27.5197 26.7201 27.5197 25.7601 27.9997 25.2801C28.4797 24.8001 29.4397 24.8001 29.9197 25.2801L31.1997 26.5601L32.3197 25.2801C32.7997 24.8001 33.7597 24.8001 34.2397 25.2801C34.7197 25.7601 34.7197 26.7201 34.2397 27.2001L33.1197 28.3201L34.2397 29.4401Z" fill="#FFB41B"/>
</svg>
