<svg width="16" height="16" viewBox="0 0 16 16" fill="none" xmlns="http://www.w3.org/2000/svg"><g clip-path="url(#clip0_939_10009)"><path d="M10.8405 0.424225H5.15868C2.54409 0.424225 0.423828 2.54449 0.423828 5.15908V10.8409C0.423828 13.4555 2.54409 15.5757 5.15868 15.5757H10.8405C13.4551 15.5757 15.5754 13.4555 15.5754 10.8409V5.15908C15.5754 2.54449 13.4551 0.424225 10.8405 0.424225ZM14.1549 10.8409C14.1549 12.6685 12.6682 14.1553 10.8405 14.1553H5.15868C3.33103 14.1553 1.84428 12.6685 1.84428 10.8409V5.15908C1.84428 3.33142 3.33103 1.84468 5.15868 1.84468H10.8405C12.6682 1.84468 14.1549 3.33142 14.1549 5.15908V10.8409Z" fill="#C7AEA4"/><path d="M8.27974 4.35242C6.1104 4.35242 4.35156 6.11126 4.35156 8.28059C4.35156 10.4499 6.1104 12.2088 8.27974 12.2088C10.4491 12.2088 12.2079 10.4499 12.2079 8.28059C12.2079 6.11126 10.4491 4.35242 8.27974 4.35242ZM8.27974 10.7357C6.92648 10.7357 5.82463 9.63384 5.82463 8.28059C5.82463 6.92635 6.92648 5.82548 8.27974 5.82548C9.63299 5.82548 10.7348 6.92635 10.7348 8.28059C10.7348 9.63384 9.63299 10.7357 8.27974 10.7357Z" fill="#C7AEA4"/><path d="M12.2077 4.35238C12.5176 4.35238 12.7688 4.10113 12.7688 3.79121C12.7688 3.48128 12.5176 3.23004 12.2077 3.23004C11.8977 3.23004 11.6465 3.48128 11.6465 3.79121C11.6465 4.10113 11.8977 4.35238 12.2077 4.35238Z" fill="#C7AEA4"/></g><defs><clipPath id="clip0_939_10009"><rect width="15.1515" height="15.1515" fill="white" transform="translate(0.423828 0.424225)"/></clipPath></defs>
</svg>
