<svg width="13" height="16" viewBox="0 0 13 16" fill="none" xmlns="http://www.w3.org/2000/svg">
    <path d="M6.46921 0.376923C2.464 0.376923 0.333984 3.03096 0.333984 5.92489C0.333984 7.26702 1.05921 8.94067 2.22013 9.47148C2.39641 9.55365 2.49232 9.5187 2.5316 9.34964C2.5663 9.22118 2.71884 8.60254 2.79282 8.31069C2.81566 8.21718 2.80379 8.13596 2.73071 8.04812C2.34526 7.58721 2.03928 6.74755 2.03928 5.95984C2.03928 3.94145 3.59113 1.98162 6.23173 1.98162C8.5152 1.98162 10.1127 3.51548 10.1127 5.70955C10.1127 8.18885 8.84402 9.90405 7.19535 9.90405C6.28288 9.90405 5.60332 9.16357 5.81888 8.24741C6.07919 7.15652 6.58978 5.98345 6.58978 5.19669C6.58978 4.49115 6.20433 3.90745 5.41699 3.90745C4.48807 3.90745 3.73453 4.85856 3.73453 6.13552C3.73453 6.94684 4.0122 7.49465 4.0122 7.49465C4.0122 7.49465 3.09333 11.3331 2.92253 12.0499C2.63389 13.2636 2.9618 15.2291 2.99012 15.3982C3.00747 15.4917 3.10886 15.521 3.16549 15.4445C3.25591 15.3217 4.36659 13.683 4.67806 12.4986C4.79132 12.067 5.25623 10.3168 5.25623 10.3168C5.56222 10.8882 6.44546 11.3671 7.38625 11.3671C10.1849 11.3671 12.2071 8.82355 12.2071 5.66705C12.1971 2.64088 9.69256 0.376923 6.46921 0.376923Z" fill="#C7AEA4"/>
</svg>
