<svg width="181" height="164" viewBox="0 0 181 164" fill="none" xmlns="http://www.w3.org/2000/svg">
<path d="M11.0371 2.04391L10.4648 2.69795C14.716 12.2633 22.7277 17.7408 28.2051 27.6331C31.884 34.2553 35.9716 40.7957 40.3863 47.009C42.8388 31.9661 45.2914 16.9233 47.6622 1.96216C34.5818 2.12567 23.954 3.27023 11.0371 2.04391Z" fill="#D5C6FF"/>
<path d="M97.8575 44.7198C103.335 31.0668 109.63 17.8225 116.824 4.90524C104.316 4.49647 91.8078 4.16945 79.2179 3.76068L78.4004 3.59717C82.488 9.64702 84.0413 17.0049 86.5756 23.8723C89.2735 31.312 93.0341 38.3429 97.8575 44.7198Z" fill="#D5C6FF"/>
<path d="M148.789 0C154.103 15.2064 157.128 29.5135 168.001 41.2861C171.435 27.7966 175.767 14.4706 180.918 1.47159C168.491 2.45264 161.215 1.71685 148.789 0Z" fill="#D5C6FF"/>
<path d="M128.025 84.2891C130.968 90.0937 133.911 95.8983 136.936 101.703C141.514 88.1316 146.01 74.5603 150.588 60.989C140.124 60.662 129.66 60.335 119.195 60.0079C120.013 68.5922 124.019 76.5224 128.025 84.2891Z" fill="#D5C6FF"/>
<path d="M90.4191 118.136L89.6016 117.89C92.7082 125.575 95.733 133.342 98.8396 141.027C100.148 144.297 101.456 147.567 103.336 150.511C106.197 155.007 110.203 158.931 112.002 163.918C119.768 150.183 119.523 133.424 124.919 118.626C113.392 118.953 101.864 118.79 90.4191 118.136Z" fill="#D5C6FF"/>
<path d="M47.6621 60.4167C50.2782 67.1206 52.8943 73.7427 55.5921 80.4466C59.925 91.5653 64.5031 103.011 72.4331 112.004C76.112 95.4077 81.4259 79.2203 88.2113 63.6051C75.1309 62.2153 63.8491 59.6809 50.687 59.6809L47.6621 60.4167Z" fill="#D5C6FF"/>
<path d="M0 75.2143C0 79.302 1.63505 82.5722 3.4336 85.1884C9.64679 94.0179 9.31978 106.118 15.6965 114.865C16.0235 115.356 16.514 115.846 17.168 115.765C17.495 115.683 17.7403 115.438 17.9855 115.111C26.8966 104.155 29.9214 89.6031 32.6192 75.7048C21.8279 75.5413 10.7096 74.8055 0 75.2143Z" fill="#D5C6FF"/>
</svg>
