<svg width="17" height="14" viewBox="0 0 17 14" fill="none" xmlns="http://www.w3.org/2000/svg">
    <path d="M16.2171 2.38333C15.6181 2.63486 14.9799 2.80158 14.3144 2.88253C14.999 2.49127 15.5215 1.87642 15.7671 1.13532C15.1289 1.49961 14.4242 1.75692 13.6731 1.90051C13.0671 1.28277 12.2033 0.900177 11.261 0.900177C9.43275 0.900177 7.96091 2.32069 7.96091 4.06212C7.96091 4.31268 7.98306 4.55361 8.03742 4.78298C5.29205 4.6548 2.8628 3.39523 1.23088 1.47648C0.945972 1.94966 0.778854 2.49127 0.778854 3.07431C0.778854 4.16909 1.36779 5.13955 2.24567 5.70139C1.71512 5.69176 1.19464 5.54431 0.753686 5.31205C0.753686 5.32169 0.753686 5.33422 0.753686 5.34675C0.753686 6.88291 1.89834 8.15886 3.39939 8.45279C3.13059 8.52315 2.83763 8.55688 2.53359 8.55688C2.32218 8.55688 2.10875 8.54531 1.90841 8.50291C2.33627 9.75477 3.5504 10.6751 4.99406 10.705C3.87054 11.5463 2.444 12.0532 0.899663 12.0532C0.628851 12.0532 0.369113 12.0417 0.109375 12.0099C1.57216 12.9129 3.30576 13.4284 5.17527 13.4284C11.2519 13.4284 14.5742 8.60988 14.5742 4.43315C14.5742 4.29341 14.5691 4.15849 14.5621 4.02453C15.2175 3.5793 15.7681 3.02324 16.2171 2.38333Z" fill="#C7AEA4"/>
</svg>
