<svg width="19" height="13" viewBox="0 0 19 13" fill="none" xmlns="http://www.w3.org/2000/svg">
    <path d="M17.3229 1.21605C16.8393 0.355713 16.3144 0.197465 15.2457 0.137286C14.178 0.0648489 11.4934 0.0347595 9.16761 0.0347595C6.83735 0.0347595 4.15159 0.064849 3.08509 0.136172C2.01859 0.197465 1.49258 0.354599 1.00446 1.21605C0.506317 2.07527 0.25 3.55522 0.25 6.16074C0.25 6.16297 0.25 6.16408 0.25 6.16408C0.25 6.16631 0.25 6.16742 0.25 6.16742V6.16965C0.25 8.76403 0.506317 10.2551 1.00446 11.1054C1.49258 11.9658 2.01747 12.1218 3.08398 12.1942C4.15159 12.2566 6.83735 12.2934 9.16761 12.2934C11.4934 12.2934 14.178 12.2566 15.2468 12.1953C16.3155 12.1229 16.8404 11.9669 17.3241 11.1065C17.8267 10.2562 18.0808 8.76514 18.0808 6.17077C18.0808 6.17077 18.0808 6.16742 18.0808 6.1652C18.0808 6.1652 18.0808 6.16297 18.0808 6.16185C18.0808 3.55522 17.8267 2.07527 17.3229 1.21605ZM6.93653 9.50735V2.82081L12.5086 6.16408L6.93653 9.50735Z" fill="#C7AEA4"/>
</svg>
